<?xml version="1.0" encoding="UTF-8"?>
<svg width="225.02mm" height="170.21mm" version="1.1" viewBox="0 0 225.02 170.21" xmlns="http://www.w3.org/2000/svg" xmlns:cc="http://creativecommons.org/ns#" xmlns:dc="http://purl.org/dc/elements/1.1/" xmlns:rdf="http://www.w3.org/1999/02/22-rdf-syntax-ns#">
 <metadata>
  <rdf:RDF>
   <cc:Work rdf:about="">
    <dc:format>image/svg+xml</dc:format>
    <dc:type rdf:resource="http://purl.org/dc/dcmitype/StillImage"/>
    <dc:title/>
   </cc:Work>
  </rdf:RDF>
 </metadata>
 <g transform="translate(7.5117 -63.396)">
  <path d="m20.592 63.396c-11.804 0.0411-20.364 3.2958-24.762 9.6607-7.218 10.445-2.6384 28.411 12.731 49.945 3.6105 5.0587 10.325 12.626 16.445 19.249 0.12098-0.49614 0.24176-0.99234 0.36273-1.4885 0 0 0.11451-0.32294 0.29729-0.76907l-4.2752-5.518s-18.949-30.601-14.218-39.729c7.8725-15.187 34.12-19.095 84.223 1.5769 3.4588-2.1089 6.9161-4.1414 10.363-6.094-19.142-10.557-38.005-18.507-54.71-22.923-9.9912-2.6416-18.891-3.936-26.458-3.9096zm161.44 87.552c-0.61569 0.62179-1.2369 1.2431-1.8633 1.8645 22.002 23.125 30.941 45.801 25.095 57.078-2.9573 5.7048-10.579 8.5288-21.43 8.604-17.73 0.12283-38.259-4.3653-65.531-16.798-3.0277 1.9217-6.0625 3.7889-9.0988 5.5996 30.17 16.508 59.138 26.253 79.809 26.307 12.119 0.0318 20.753-3.2834 25.16-9.6607 7.218-10.445 2.6385-28.411-12.731-49.945-5.3784-7.5357-11.931-15.292-19.41-23.05zm6.9815-87.552c-27.815 0.073-70.652 17.682-111.23 45.721-0.35478 0.24518-0.70536 0.49366-1.0587 0.73999 0.10607 0.0101 0.21321 0.0187 0.31829 0.0303 3.0908 0.36021 6.0861 1.1439 9.0209 2.0778 0.43626-0.24998 0.87063-0.50046 1.3111-0.74968 43.649-24.695 72.584-32.876 96.455-32.711 10.85 0.0752 18.472 2.8992 21.43 8.604 6.1596 11.882-4.0973 36.419-28.752 60.802 0.24291 0.99621 0.48578 1.9924 0.72869 2.9886 9.4937-9.3631 17.703-18.792 24.202-27.898 15.369-21.534 19.949-39.5 12.731-49.945-4.407-6.3773-13.041-9.6925-25.16-9.6607zm-167.94 95.006c-4.6583 5.2544-8.8524 10.476-12.506 15.596-15.369 21.534-19.949 39.5-12.731 49.945 7.2181 10.445 25.643 12.514 51.22 5.7511 25.577-6.7626 56.213-21.802 85.166-41.811 3.1598-2.1836 6.267-4.4092 9.3222-6.666-1.5187-0.15384-3.0382-0.27594-4.5587-0.35384-1.5846-0.11688-3.16-0.076-4.7195 0.0812-2.4541 1.3907-4.9642 2.7558-7.5328 4.0902-72.091 37.45-108.09 35.475-117.55 17.219-4.5093-8.6988-0.0321-22.128 12.333-37.449 0.52032-2.1339 1.0405-4.2679 1.5608-6.4018zm55.531-45.247c0.80099-6e-3 1.605 0.0353 2.3775 0.12037 3.0556 0.35612 6.0106 1.1618 8.9025 2.1073 4.1819 1.3971 8.2467 3.0833 12.188 4.9917v2.3686c-3.7386-1.699-7.5937-3.2002-11.56-4.444-2.7428-0.84169-5.5456-1.5588-8.4437-1.8758-0.73267-0.0757-1.495-0.11267-2.2547-0.10704-0.25324 2e-3 -0.5064 9e-3 -0.75776 0.0202-2.8957 0.18838-5.7836 0.73637-8.6267 1.3479-4.9701 1.0936-9.8777 2.4375-14.753 3.9108 0 0 0.21131-2.1349 0.9985-2.922 0.78719-0.78712 3.7246-1.8007 3.7246-1.8007 2.7548-0.79144 5.5228-1.5274 8.31-2.1808 2.9976-0.68692 6.0425-1.3023 9.0956-1.5139 0.26505-0.0129 0.53156-0.0206 0.79856-0.0226zm-31.591 13.382c-4.6028 16.227-9.2054 32.454-13.808 48.68 7.3754-1.6499 19.331-3.9876 26.775-5.2143 4.8973-0.78393 9.8167-1.5181 14.748-1.7353 2.8603-0.18135 5.6797 0.2257 8.3879 0.87854 5.3381 1.2908 10.428 4.0878 18.957 6.2782v3.1607c-8.9928-2.4604-14.36-4.6369-19.988-6.0868-2.8554-0.73335-5.8278-1.1905-8.8436-0.9868-5.1995 0.24394-10.386 1.0684-15.55 1.949-7.848 1.3779-20.207 3.9026-27.983 5.756 4.2787-16.07 8.5576-32.141 12.836-48.211 0 0 0.67711-2.1902 1.4218-2.9349 0.7447-0.7447 3.0464-1.5333 3.0464-1.5333zm-8.6456 10.299c-3.909 15.048-7.8182 30.096-11.727 45.144 8.6498-2.1129 17.336-4.0477 26.065-5.6186 5.7435-1.0039 11.513-1.9439 17.297-2.222 3.3545-0.23226 6.6614 0.28887 9.8376 1.1249 6.2605 1.653 12.23 5.2351 22.233 8.0402v4.0477c-10.547-3.1509-16.841-5.9378-23.442-7.7946-3.3488-0.93913-6.8351-1.5248-10.372-1.2639-6.098 0.3124-12.181 1.3682-18.237 2.4958-9.2041 1.7646-18.362 3.9383-27.482 6.3118 3.7015-15.181 7.4032-30.362 11.105-45.543 0 0 0.7886-2.2436 1.5757-3.0307 0.78713-0.78706 3.147-1.6916 3.147-1.6916zm87.174-23.681c-0.80099-6e-3 -1.605 0.0353-2.3775 0.12037-3.0556 0.35612-6.0106 1.1618-8.9025 2.1073-4.1819 1.3971-8.2467 3.0833-12.188 4.9917v2.3686c3.7386-1.699 7.5937-3.2002 11.56-4.444 2.7429-0.84169 5.5456-1.5588 8.4437-1.8758 0.73267-0.0757 1.495-0.11266 2.2547-0.10704 0.25324 2e-3 0.50641 9e-3 0.75777 0.0202 2.8957 0.1884 5.7836 0.73638 8.6267 1.3479 4.9701 1.0936 9.8777 2.4375 14.753 3.9108 0 0-0.21132-2.1349-0.99851-2.922-0.78718-0.78712-3.7246-1.8007-3.7246-1.8007-2.7548-0.79144-5.5228-1.5274-8.31-2.1808-2.9976-0.68693-6.0426-1.3023-9.0956-1.5139-0.26505-0.0129-0.53156-0.0206-0.79856-0.0226zm31.591 13.382c4.6028 16.227 9.2054 32.454 13.808 48.68-7.3754-1.6499-19.331-3.9876-26.775-5.2143-4.8973-0.78393-9.8167-1.5181-14.748-1.7353-2.8603-0.18135-5.6797 0.2257-8.3879 0.87855-5.338 1.2908-10.428 4.0878-18.957 6.2782v3.1607c8.9927-2.4604 14.36-4.6369 19.988-6.0868 2.8554-0.73334 5.8278-1.1905 8.8436-0.98679 5.1995 0.24394 10.386 1.0684 15.55 1.949 7.848 1.3779 20.207 3.9026 27.983 5.7559-4.2787-16.07-8.5576-32.141-12.836-48.211 0 0-0.67711-2.1902-1.4218-2.9349-0.74471-0.7447-3.0464-1.5333-3.0464-1.5333zm8.6456 10.299c3.909 15.048 7.8182 30.096 11.727 45.144-8.6498-2.1129-17.336-4.0477-26.065-5.6186-5.7435-1.0039-11.513-1.9439-17.297-2.222-3.3545-0.23226-6.6614 0.28888-9.8376 1.1249-6.2605 1.653-12.23 5.2351-22.233 8.0402v4.0477c10.547-3.1509 16.841-5.9378 23.442-7.7946 3.3488-0.93913 6.8352-1.5248 10.372-1.2639 6.098 0.3124 12.181 1.3682 18.237 2.4959 9.2041 1.7646 18.362 3.9383 27.482 6.3118-3.7015-15.181-7.4032-30.362-11.105-45.543 0 0-0.7886-2.2436-1.5757-3.0307-0.78712-0.78705-3.147-1.6916-3.147-1.6916z" fill="#5d5c82" stroke-width=".2818"/>
 </g>
</svg>
